<?xml version="1.0" encoding="UTF-8"?>
<svg width="139px" height="24px" viewBox="0 0 139 24" version="1.1" xmlns="http://www.w3.org/2000/svg" xmlns:xlink="http://www.w3.org/1999/xlink">
    <!-- Generator: sketchtool 48.2 (47327) - http://www.bohemiancoding.com/sketch -->
    <title>53CDACC7-880D-4227-9845-7A63F5C83FAE</title>
    <desc>Created with sketchtool.</desc>
    <defs></defs>
    <g id="Search-filled" stroke="none" stroke-width="1" fill="none" fill-rule="evenodd" transform="translate(-1166.000000, -126.000000)">
        <g id="add-filters" transform="translate(1166.000000, 124.000000)">
            <text id="Add-filters" font-family="Raleway-Regular, Raleway" font-size="22" font-weight="normal" fill="#1A1A1A">
                <tspan x="0" y="21">Add filters</tspan>
            </text>
            <g id="levels" transform="translate(115.000000, 2.000000)" fill="#000000" fill-rule="nonzero">
                <path d="M4.69246436,2.08555601 L2.60690835,2.08555601 C1.16998778,2.08555601 0,3.25554379 0,4.69246436 L0,6.77802037 C0,8.21494094 1.16998778,9.38492872 2.60690835,9.38492872 L4.69246436,9.38492872 C6.12938493,9.38492872 7.29937271,8.21494094 7.29937271,6.77802037 L7.29937271,4.69246436 C7.29937271,3.25554379 6.12938493,2.08555601 4.69246436,2.08555601 Z M6.25661914,6.77802037 C6.25661914,7.64040733 5.55485132,8.34217515 4.69246436,8.34217515 L2.60690835,8.34217515 C1.74452138,8.34217515 1.04275356,7.64040733 1.04275356,6.77802037 L1.04275356,4.69246436 C1.04275356,3.83007739 1.74452138,3.12830957 2.60690835,3.12830957 L4.69246436,3.12830957 C5.55485132,3.12830957 6.25661914,3.83007739 6.25661914,4.69246436 L6.25661914,6.77802037 Z" id="Shape"></path>
                <path d="M21.3767658,14.5987943 L19.2912098,14.5987943 C17.8542892,14.5987943 16.6843014,15.7687821 16.6843014,17.2057026 L16.6843014,19.2912587 C16.6843014,20.7281792 17.8542892,21.898167 19.2912098,21.898167 L21.3767658,21.898167 C22.8136864,21.898167 23.9836741,20.7281792 23.9836741,19.2912587 L23.9836741,17.2057026 C23.983723,15.7687821 22.8137352,14.5987943 21.3767658,14.5987943 Z M22.9409206,19.2912587 C22.9409206,20.1536456 22.2391527,20.8554134 21.3767658,20.8554134 L19.2912098,20.8554134 C18.4288228,20.8554134 17.727055,20.1536456 17.727055,19.2912587 L17.727055,17.2057026 C17.727055,16.3433157 18.4288228,15.6415479 19.2912098,15.6415479 L21.3767658,15.6415479 C22.2391527,15.6415479 22.9409206,16.3433157 22.9409206,17.2057026 L22.9409206,19.2912587 Z" id="Shape"></path>
                <path d="M13.0346395,8.34217515 L10.9490835,8.34217515 C9.51216293,8.34217515 8.34217515,9.51216293 8.34217515,10.9490835 L8.34217515,13.0346395 C8.34217515,14.4715601 9.51216293,15.6415479 10.9490835,15.6415479 L13.0346395,15.6415479 C14.4715601,15.6415479 15.6415479,14.4715601 15.6415479,13.0346395 L15.6415479,10.9490835 C15.6415479,9.51216293 14.4715601,8.34217515 13.0346395,8.34217515 Z M14.5987943,13.0346395 C14.5987943,13.8970265 13.8970265,14.5987943 13.0346395,14.5987943 L10.9490835,14.5987943 C10.0866965,14.5987943 9.38492872,13.8970265 9.38492872,13.0346395 L9.38492872,10.9490835 C9.38492872,10.0866965 10.0866965,9.38492872 10.9490835,9.38492872 L13.0346395,9.38492872 C13.8970265,9.38492872 14.5987943,10.0866965 14.5987943,10.9490835 L14.5987943,13.0346395 Z" id="Shape"></path>
                <path d="M3.64971079,0 C3.36190631,0 3.12830957,0.233596741 3.12830957,0.521401222 L3.12830957,2.60695723 C3.12830957,2.89471283 3.36190631,3.12830957 3.64971079,3.12830957 C3.93751527,3.12830957 4.17111202,2.89471283 4.17111202,2.60690835 L4.17111202,0.521401222 C4.17106314,0.233596741 3.93751527,0 3.64971079,0 Z" id="Shape"></path>
                <path d="M3.64971079,8.34217515 C3.36190631,8.34217515 3.12830957,8.57577189 3.12830957,8.86357637 L3.12830957,23.4623218 C3.12830957,23.7501263 3.36190631,23.983723 3.64971079,23.983723 C3.93751527,23.983723 4.17106314,23.7501263 4.17106314,23.4623218 L4.17106314,8.86352749 C4.17106314,8.57572301 3.93751527,8.34217515 3.64971079,8.34217515 Z" id="Shape"></path>
                <path d="M11.9918371,14.5987943 C11.7040326,14.5987943 11.4704358,14.832391 11.4704358,15.1201955 L11.4704358,23.4623218 C11.4704358,23.7501263 11.7040326,23.983723 11.9918371,23.983723 C12.2796415,23.983723 12.5132383,23.7501263 12.5132383,23.4623218 L12.5132383,15.1201466 C12.5132383,14.8323422 12.2796415,14.5987943 11.9918371,14.5987943 Z" id="Shape"></path>
                <path d="M11.9918371,0 C11.7040326,0 11.4704358,0.233596741 11.4704358,0.521401222 L11.4704358,8.86357637 C11.4704358,9.15138086 11.7040326,9.3849776 11.9918371,9.3849776 C12.2796415,9.3849776 12.5132383,9.15133198 12.5132383,8.86352749 L12.5132383,0.521401222 C12.5132383,0.233596741 12.2796415,0 11.9918371,0 Z" id="Shape"></path>
                <path d="M20.3340122,0 C20.0462077,0 19.812611,0.233596741 19.812611,0.521401222 L19.812611,15.1201955 C19.812611,15.408 20.0462077,15.6415967 20.3340122,15.6415967 C20.6218167,15.6415967 20.8554134,15.408 20.8554134,15.1201955 L20.8554134,0.521401222 C20.8554134,0.233596741 20.6218167,0 20.3340122,0 Z" id="Shape"></path>
                <path d="M20.3340122,20.8554134 C20.0462077,20.8554134 19.812611,21.0890102 19.812611,21.3768147 L19.812611,23.4623218 C19.812611,23.7501263 20.0462077,23.983723 20.3340122,23.983723 C20.6218167,23.983723 20.8554134,23.7501263 20.8554134,23.4623218 L20.8554134,21.3767658 C20.8554134,21.0889613 20.6218167,20.8554134 20.3340122,20.8554134 Z" id="Shape"></path>
            </g>
        </g>
    </g>
</svg>