<?xml version="1.0" encoding="UTF-8"?>
<svg width="11px" height="6px" viewBox="0 0 11 6" version="1.1" xmlns="http://www.w3.org/2000/svg" xmlns:xlink="http://www.w3.org/1999/xlink">
    <!-- Generator: sketchtool 48.2 (47327) - http://www.bohemiancoding.com/sketch -->
    <title>DE1594CA-17A7-4B07-831B-B119ED06103B</title>
    <desc>Created with sketchtool.</desc>
    <defs></defs>
    <g id="input-1" stroke="none" stroke-width="1" fill="none" fill-rule="evenodd" transform="translate(-276.000000, -35.000000)" opacity="0.600000024">
        <g fill="#333333" id="arrow">
            <path d="M286.697545,35.7332589 C286.764509,35.8002235 286.797991,35.8772317 286.797991,35.9642857 C286.797991,36.0513397 286.764509,36.1283479 286.697545,36.1953125 L282.016741,40.8761161 C281.949776,40.9430807 281.872768,40.9765625 281.785714,40.9765625 C281.69866,40.9765625 281.621652,40.9430807 281.554688,40.8761161 L276.873884,36.1953125 C276.806919,36.1283479 276.773438,36.0513397 276.773438,35.9642857 C276.773438,35.8772317 276.806919,35.8002235 276.873884,35.7332589 L277.376116,35.2310268 C277.443081,35.1640622 277.520089,35.1305804 277.607143,35.1305804 C277.694197,35.1305804 277.771205,35.1640622 277.83817,35.2310268 L281.785714,39.1785714 L285.733259,35.2310268 C285.800224,35.1640622 285.877232,35.1305804 285.964286,35.1305804 C286.05134,35.1305804 286.128348,35.1640622 286.195312,35.2310268 L286.697545,35.7332589 Z"></path>
        </g>
    </g>
</svg>