<?xml version="1.0" encoding="UTF-8"?>
<svg width="15px" height="25px" viewBox="0 0 15 25" version="1.1" xmlns="http://www.w3.org/2000/svg" xmlns:xlink="http://www.w3.org/1999/xlink">
    <!-- Generator: sketchtool 48.2 (47327) - http://www.bohemiancoding.com/sketch -->
    <title>164B598C-98F8-4DCA-A007-0F6F10E5E48D</title>
    <desc>Created with sketchtool.</desc>
    <defs></defs>
    <g id="blocks" stroke="none" stroke-width="1" fill="none" fill-rule="evenodd" transform="translate(-28.000000, -189.000000)" opacity="0.328011775">
        <path d="M42.742268,190.503006 C42.9140902,190.670008 43,190.862056 43,191.079158 C43,191.29626 42.9140902,191.488309 42.742268,191.655311 L32.6134021,201.5 L42.742268,211.344689 C42.9140902,211.511691 43,211.70374 43,211.920842 C43,212.137944 42.9140902,212.329992 42.742268,212.496994 L41.4536082,213.749499 C41.2817861,213.916501 41.0841936,214 40.8608247,214 C40.6374559,214 40.4398634,213.916501 40.2680412,213.749499 L28.257732,202.076152 C28.0859098,201.909151 28,201.717102 28,201.5 C28,201.282898 28.0859098,201.090849 28.257732,200.923848 L40.2680412,189.250501 C40.4398634,189.083499 40.6374559,189 40.8608247,189 C41.0841936,189 41.2817861,189.083499 41.4536082,189.250501 L42.742268,190.503006 Z" id="arrow-copy" fill="#1A1A1A"></path>
    </g>
</svg>