<?xml version="1.0" encoding="UTF-8"?>
<svg width="47px" height="35px" viewBox="0 0 47 35" version="1.1" xmlns="http://www.w3.org/2000/svg" xmlns:xlink="http://www.w3.org/1999/xlink">
    <!-- Generator: sketchtool 48.2 (47327) - http://www.bohemiancoding.com/sketch -->
    <title>8ADF83CD-E077-429D-A55F-DA1842C17A5E</title>
    <desc>Created with sketchtool.</desc>
    <defs></defs>
    <g id="Edit-user-profile-" stroke="none" stroke-width="1" fill="none" fill-rule="evenodd" transform="translate(-697.000000, -177.000000)">
        <g id="Group-9" transform="translate(532.000000, 147.000000)" fill="#F5F5F5">
            <g id="Group-7" transform="translate(31.000000, 30.000000)">
                <g id="camera" transform="translate(134.000000, 0.000000)">
                    <path d="M11.1329355,6.84782601 L14.9884516,1.20065216 C15.5039355,0.537173907 16.6016129,0 17.4294194,0 L29.5720968,0 C30.4059677,0 31.4975806,0.537173907 32.0115484,1.20065216 L35.8670645,6.84782601 L43.9707742,6.84782601 C45.6430645,6.84782601 47,8.2052173 47,9.88673902 L47,31.9610866 C46.999163,33.639678 45.6431775,34.9999998 43.9707742,34.9999996 L3.02922581,34.9999996 C2.22596462,35.0004033 1.45546526,34.6804113 0.887331598,34.1104608 C0.319197937,33.5405103 -1.00709571e-07,32.7673202 0,31.9610866 L0,9.88673902 C0,8.20826078 1.35541935,6.84782601 3.02922581,6.84782601 L11.1329355,6.84782601 Z M24.2580645,31.9565217 C30.1194091,31.9565217 34.8709677,27.187381 34.8709677,21.3043478 C34.8709677,15.4213146 30.1194091,10.6521739 24.2580645,10.6521739 C18.3967199,10.6521739 13.6451613,15.4213146 13.6451613,21.3043478 C13.6451613,27.187381 18.3967199,31.9565217 24.2580645,31.9565217 Z M24.2580645,29.673913 C19.6527223,29.673913 15.9193548,25.9267311 15.9193548,21.3043478 C15.9193548,16.6819646 19.6527223,12.9347826 24.2580645,12.9347826 C28.8634067,12.9347826 32.5967742,16.6819646 32.5967742,21.3043478 C32.5967742,25.9267311 28.8634067,29.673913 24.2580645,29.673913 Z M3.03225806,3.04347826 C3.03225806,2.20347826 3.70390323,1.52173913 4.5483871,1.52173913 L7.58064516,1.52173913 C8.41906452,1.52173913 9.09677419,2.1973913 9.09677419,3.04347826 L9.09677419,4.56521739 L3.03225806,4.56521739 L3.03225806,3.04347826 Z M36.3870968,12.173913 C37.2244317,12.173913 37.9032258,11.4926072 37.9032258,10.6521739 C37.9032258,9.8117406 37.2244317,9.13043478 36.3870968,9.13043478 C35.5497618,9.13043478 34.8709677,9.8117406 34.8709677,10.6521739 C34.8709677,11.4926072 35.5497618,12.173913 36.3870968,12.173913 Z" id="Shape"></path>
                </g>
            </g>
        </g>
    </g>
</svg>