<svg xmlns="http://www.w3.org/2000/svg" width="28" height="28" viewBox="0 0 28 28">
    <g fill="#FFF" fill-rule="nonzero">
        <path d="M26.667 3.096a.568.568 0 0 0 .134-.789.56.56 0 0 0-.783-.135l-1.404 1a.568.568 0 0 0 .325 1.027.556.556 0 0 0 .324-.104l1.404-1zM22.95 2.77a.562.562 0 0 0 .724-.33l.604-1.62a.567.567 0 0 0-.329-.728.56.56 0 0 0-.723.33l-.605 1.62a.567.567 0 0 0 .328.728zM27.365 5.243h-.011l-1.719.014a.548.548 0 0 0-.55.558.568.568 0 0 0 .562.56h.011l1.719-.03a.558.558 0 0 0 .55-.57.545.545 0 0 0-.562-.532zM23.898 13.873a2.334 2.334 0 0 0-.988-.459 2.33 2.33 0 0 0 .067-.132l.225-.227c.869-.874.96-2.25.212-3.202a2.36 2.36 0 0 0-1.387-.858c.039-.072.073-.146.105-.22.591-.863.582-2.022-.074-2.856a2.36 2.36 0 0 0-1.387-.86c.45-.831.392-1.868-.209-2.632a2.36 2.36 0 0 0-1.865-.908 2.35 2.35 0 0 0-1.573.596 2.356 2.356 0 0 0-.47-1.053A2.361 2.361 0 0 0 14.69.154c-.636 0-1.233.248-1.68.699L7.31 6.589l-.022-.766a2.375 2.375 0 0 0-2.364-2.361 2.374 2.374 0 0 0-2.362 2.29l-1.138 8.325-.935 1.094a1.676 1.676 0 0 0 .086 2.26l1.39 1.396a1.676 1.676 0 0 0 .206 2.096l6.524 6.557c.312.313.725.486 1.165.486.362 0 .719-.122 1.005-.344l1.362-1.053c1.31-.312 2.755-1.02 4.296-2.105 1.346-.948 2.806-2.212 4.34-3.756l3.242-3.265a2.404 2.404 0 0 0-.208-3.57zM17.711 3.018c.243-.246.564-.368.886-.368.366 0 .733.16.984.48.399.506.33 1.242-.125 1.699l-.578.582a2.36 2.36 0 0 0-.258.196 2.366 2.366 0 0 0-1.638-1.857l.729-.732zm-3.908-1.365c.244-.245.565-.368.886-.368.367 0 .733.16.985.48.398.506.329 1.242-.126 1.699l-6.64 6.617-.023-.766a2.383 2.383 0 0 0-.876-1.829l5.794-5.833zM1.37 16.629a.532.532 0 0 1-.027-.72l1.15-1.346.001-.002 1.192-8.72c0-.686.558-1.248 1.24-1.248.682 0 1.24.562 1.24 1.249l.033 1.134a2.378 2.378 0 0 0-2.04 2.268L3.021 17.57l-.33.387-1.322-1.328zm21.943.014l-3.243 3.265c-2.77 2.789-5.665 5.027-8.209 5.585a.534.534 0 0 0-.212.098l-1.466 1.134a.522.522 0 0 1-.692-.046l-6.524-6.557a.532.532 0 0 1-.028-.72l1.15-1.347.001-.002 1.192-8.719c0-.687.558-1.249 1.24-1.249.682 0 1.24.562 1.24 1.25l.06 2.057c.01.341.288.564.58.564a.563.563 0 0 0 .403-.17l6.595-6.64a1.246 1.246 0 0 1 1.87.112c.4.506.33 1.241-.125 1.698l-4.543 4.574a.61.61 0 0 0 .865.86l5.84-5.88c.244-.245.565-.368.887-.368.366 0 .733.16.984.48.399.506.33 1.242-.125 1.7l-5.814 5.852a.62.62 0 0 0 0 .872.6.6 0 0 0 .854 0l4.57-4.602c.244-.245.565-.368.887-.368.366 0 .733.16.984.48.399.506.329 1.242-.125 1.699l-4.528 4.558a.633.633 0 0 0 0 .892l.007.007a.575.575 0 0 0 .819 0l2.807-2.825c.253-.255.591-.39.929-.39.268 0 .536.086.759.263a1.27 1.27 0 0 1 .11 1.883z"/>
    </g>
</svg>
