<?xml version="1.0" encoding="UTF-8"?>
<svg width="24px" height="24px" viewBox="0 0 24 24" version="1.1" xmlns="http://www.w3.org/2000/svg" xmlns:xlink="http://www.w3.org/1999/xlink">
    <!-- Generator: sketchtool 48.2 (47327) - http://www.bohemiancoding.com/sketch -->
    <title>9B92E108-BB00-4F11-BC37-D0EC44777BD8</title>
    <desc>Created with sketchtool.</desc>
    <defs></defs>
    <g id="login_active" stroke="none" stroke-width="1" fill="none" fill-rule="evenodd" transform="translate(-1227.000000, -223.000000)">
        <g id="close" transform="translate(1227.000000, 223.000000)" fill="#000000" fill-rule="nonzero">
            <path d="M23.8049867,22.8625181 L1.13771972,0.195007617 C0.877712357,-0.0650025392 0.455012886,-0.0650025392 0.195005523,0.195007617 C-0.0650018409,0.455017774 -0.0650018409,0.877721786 0.195005523,1.13773194 L22.862335,23.8053049 C22.9930262,23.9346224 23.163656,24 23.3343483,24 C23.5050407,24 23.6756705,23.9346849 23.8050492,23.8053049 C24.064994,23.5452322 24.064994,23.1225282 23.8049867,22.8625181 Z" id="Shape"></path>
            <path d="M23.8049944,0.195008125 C23.544987,-0.0650027084 23.1222874,-0.0650027084 22.8622799,0.195008125 L0.195005586,22.8625776 C-0.065001862,23.1225884 -0.065001862,23.5452936 0.195005586,23.8053044 C0.32569683,23.9346223 0.496326718,24 0.667019107,24 C0.837711497,24 1.00834138,23.9346848 1.13772009,23.8053044 L23.8049944,1.1376724 C24.0650019,0.877661569 24.0650019,0.455018959 23.8049944,0.195008125 Z" id="Shape"></path>
        </g>
    </g>
</svg>