<svg xmlns="http://www.w3.org/2000/svg" width="24" height="16" viewBox="0 0 24 16">
    <g fill="#FFF" fill-rule="nonzero">
        <path d="M22.5.016h-21A1.5 1.5 0 0 0 0 1.513v12.974a1.5 1.5 0 0 0 1.5 1.497h21a1.5 1.5 0 0 0 1.5-1.497V1.513A1.5 1.5 0 0 0 22.5.016zm.5 14.471a.5.5 0 0 1-.5.5h-21a.5.5 0 0 1-.5-.5V1.513a.5.5 0 0 1 .5-.5h21a.5.5 0 0 1 .5.5v12.974z"/>
        <path d="M23.653.558a.5.5 0 0 0-.698-.112L12.882 7.714a1.5 1.5 0 0 1-1.766-.001L1.047.446a.5.5 0 0 0-.586.81L10.529 8.52a2.499 2.499 0 0 0 2.94 0l10.072-7.267a.499.499 0 0 0 .112-.696z"/>
        <path d="M11.067 7.707a.501.501 0 0 0-.699-.111L.475 14.763a.5.5 0 1 0 .588.808l9.893-7.167a.5.5 0 0 0 .111-.697zM23.525 14.763l-9.892-7.167a.5.5 0 1 0-.588.808l9.892 7.167a.5.5 0 0 0 .588-.808z"/>
    </g>
</svg>
