<svg xmlns="http://www.w3.org/2000/svg" width="18" height="18" viewBox="0 0 18 18">
    <path fill="#FFF" fill-rule="evenodd" d="M15.2 14.772V7.54h-1.506c.149.469.223.956.223 1.462 0 .938-.238 1.803-.714 2.595a5.207 5.207 0 0 1-1.942 1.88 5.363 5.363 0 0 1-2.678.693c-1.466 0-2.72-.504-3.762-1.513C3.78 11.65 3.26 10.431 3.26 9.002c0-.506.074-.993.223-1.462H1.908v7.232a.66.66 0 0 0 .196.486.66.66 0 0 0 .485.195H14.52a.664.664 0 0 0 .48-.195.65.65 0 0 0 .2-.486zm-4.184-3.582c.677-.655 1.015-1.444 1.015-2.366 0-.923-.336-1.71-1.01-2.36-.673-.652-1.486-.977-2.438-.977-.945 0-1.754.325-2.428.976-.673.651-1.01 1.438-1.01 2.36 0 .923.337 1.71 1.01 2.361a3.368 3.368 0 0 0 2.428.977c.952 0 1.763-.324 2.433-.971zM15.2 4.806V2.964a.75.75 0 0 0-.223-.541.735.735 0 0 0-.547-.229h-1.942a.735.735 0 0 0-.547.229.75.75 0 0 0-.223.541v1.842c0 .216.074.398.223.547a.744.744 0 0 0 .547.223h1.942a.744.744 0 0 0 .547-.223.744.744 0 0 0 .223-.547zm1.942-2.322V15.23c0 .603-.216 1.12-.647 1.551a2.116 2.116 0 0 1-1.552.648H2.2c-.603 0-1.12-.216-1.552-.648A2.116 2.116 0 0 1 0 15.23V2.484c0-.602.216-1.12.647-1.551A2.116 2.116 0 0 1 2.2.286h12.745c.603 0 1.12.215 1.552.647.431.432.647.949.647 1.551z"/>
</svg>
