<svg xmlns="http://www.w3.org/2000/svg" width="23" height="24" viewBox="0 0 23 24">
    <g fill="#FFF" fill-rule="nonzero">
        <path d="M11.508 12.015C5.17 12.015.015 17.154.015 23.47a.5.5 0 0 0 1 0c0-5.767 4.707-10.459 10.493-10.459 5.786 0 10.492 4.692 10.492 10.46a.5.5 0 0 0 1 0c0-6.318-5.156-11.456-11.492-11.456zM11.508 0C8.478 0 6.01 2.457 6.01 5.479c0 3.02 2.467 5.478 5.497 5.478S17.004 8.5 17.004 5.48C17.004 2.457 14.537 0 11.508 0zm0 9.961c-2.48 0-4.497-2.011-4.497-4.482 0-2.472 2.017-4.483 4.497-4.483 2.479 0 4.496 2.011 4.496 4.483 0 2.47-2.017 4.482-4.496 4.482z"/>
    </g>
</svg>
