<svg xmlns="http://www.w3.org/2000/svg" width="20" height="24" viewBox="0 0 20 24">
    <g fill="#FFF" fill-rule="nonzero">
        <path d="M19.898 20.243l-1.713-2.862a8.527 8.527 0 0 1-1.207-4.374V10.5c0-3.859-3.131-7-6.978-7s-6.978 3.141-6.978 7v2.507a8.527 8.527 0 0 1-1.207 4.374L.102 20.243A.501.501 0 0 0 .53 21h18.94a.5.5 0 0 0 .428-.757zM1.41 20l1.259-2.105a9.52 9.52 0 0 0 1.35-4.888V10.5c0-3.309 2.682-6 5.981-6s5.981 2.691 5.981 6v2.507a9.53 9.53 0 0 0 1.35 4.888L18.59 20H1.41z"/>
        <path d="M10 0C8.9 0 8.006.897 8.006 2v2a.5.5 0 1 0 .997 0V2c0-.552.447-1 .997-1s.997.448.997 1v2a.5.5 0 1 0 .997 0V2c0-1.103-.894-2-1.994-2zM12.157 20.247a.501.501 0 0 0-.683-.179.501.501 0 0 0-.178.685A1.497 1.497 0 0 1 10 23a1.5 1.5 0 0 1-1.295-2.247.503.503 0 0 0-.178-.685.5.5 0 0 0-.683.179A2.498 2.498 0 0 0 10 24a2.501 2.501 0 0 0 2.157-3.753z"/>
    </g>
</svg>
