<svg xmlns="http://www.w3.org/2000/svg" width="18" height="17" viewBox="0 0 18 17">
    <path fill="#333" fill-rule="evenodd" d="M3.895 5.833v11.06H.212V5.833h3.683zm.234-3.416c.008.544-.18.997-.563 1.362-.383.365-.887.547-1.512.547H2.03c-.61 0-1.1-.182-1.473-.547C.186 3.414 0 2.961 0 2.417c0-.55.192-1.006.575-1.367.383-.36.883-.541 1.5-.541.618 0 1.113.18 1.485.541.372.361.562.817.57 1.367zM9.6 7.404c.14-.223.286-.42.434-.59.157-.178.367-.371.631-.58a2.9 2.9 0 0 1 .971-.485c.383-.115.81-.173 1.278-.173 1.272 0 2.295.422 3.07 1.267.773.844 1.16 2.081 1.16 3.71v6.34H13.47v-5.915c0-.782-.15-1.394-.452-1.836-.301-.443-.772-.664-1.412-.664-.469 0-.861.128-1.177.385a2.374 2.374 0 0 0-.709.954c-.082.223-.123.525-.123.904v6.172H5.926c.015-2.969.023-5.376.023-7.221 0-1.845-.004-2.947-.011-3.304l-.012-.535h3.672v1.571z" opacity=".6"/>
</svg>
