<svg width="44" height="44" xmlns="http://www.w3.org/2000/svg">

 <g>
  <title>background</title>
  <rect fill="none" id="canvas_background" height="46" width="46" y="-1" x="-1"/>
 </g>
 <g>
  <title>Layer 1</title>
  <path stroke="null" id="svg_1" fill-rule="evenodd" clip-rule="evenodd" fill="#007AB9" d="m34.374955,32.377727l0,-8.608454c0,-4.611462 -2.462289,-6.757696 -5.744851,-6.757696c-2.648982,0 -3.836025,1.456793 -4.497536,2.479194l0,-2.127123l-4.990729,0c0.066151,1.409017 0,15.014815 0,15.014815l4.990729,0l0,-8.385746c0,-0.448357 0.032341,-0.896714 0.164643,-1.217914c0.360156,-0.895979 1.181164,-1.824298 2.55931,-1.824298c1.806658,0 2.52844,1.376677 2.52844,3.394283l0,8.03294l4.989994,0zm-20.490653,-17.063292c1.739772,0 2.823915,-1.153233 2.823915,-2.595326c-0.032341,-1.472228 -1.084142,-2.593121 -2.790839,-2.593121s-2.82318,1.120893 -2.82318,2.593121c0,1.442093 1.083407,2.595326 2.758498,2.595326l0.031605,0zm2.495364,17.063292l0,-15.01408l-4.989994,0l0,15.01408l4.989994,0zm-16.430449,-32.441202l44.100695,0l0,44.100689l-44.100695,0l0,-44.100689z"/>
 </g>
</svg>