<svg xmlns="http://www.w3.org/2000/svg" width="18" height="18" viewBox="0 0 18 18">
    <g fill="#1A1A1A" fill-rule="nonzero" opacity=".397">
        <path d="M6.375 0A6.382 6.382 0 0 0 0 6.375a6.382 6.382 0 0 0 6.375 6.375 6.382 6.382 0 0 0 6.375-6.375A6.382 6.382 0 0 0 6.375 0zm0 12A5.63 5.63 0 0 1 .75 6.375 5.63 5.63 0 0 1 6.375.75 5.63 5.63 0 0 1 12 6.375 5.63 5.63 0 0 1 6.375 12z"/>
        <path d="M17.89 17.36l-7.007-7.007a.375.375 0 0 0-.53.53l7.007 7.007a.377.377 0 0 0 .53 0 .375.375 0 0 0 0-.53z"/>
    </g>
</svg>
