<?xml version="1.0" encoding="UTF-8"?>
<svg width="24px" height="24px" viewBox="0 0 24 24" version="1.1" xmlns="http://www.w3.org/2000/svg" xmlns:xlink="http://www.w3.org/1999/xlink">
    <!-- Generator: sketchtool 48.2 (47327) - http://www.bohemiancoding.com/sketch -->
    <title>A328DCA3-5075-4B98-9127-6F5E1850A15A</title>
    <desc>Created with sketchtool.</desc>
    <defs></defs>
    <g id="Search" stroke="none" stroke-width="1" fill="none" fill-rule="evenodd" transform="translate(-135.000000, -116.000000)" opacity="0.397248641">
        <g id="Group-2" transform="translate(135.000000, 113.000000)" fill="#1A1A1A" fill-rule="nonzero">
            <g id="loupe" transform="translate(0.000000, 3.000000)">
                <path d="M8.50035938,0 C3.813375,0 0.000375,3.813 0.000375,8.49998437 C0.000375,13.1869687 3.813375,16.9999687 8.50035938,16.9999687 C13.1873438,16.9999687 17.0003438,13.1869687 17.0003438,8.49998437 C17.0003438,3.813 13.1873906,0 8.50035938,0 Z M8.50035938,15.9999844 C4.36434375,15.9999844 1.00035938,12.636 1.00035938,8.49998437 C1.00035938,4.36396875 4.36434375,0.999984375 8.50035938,0.999984375 C12.636375,0.999984375 16.0003594,4.36396875 16.0003594,8.49998437 C16.0003594,12.636 12.636375,15.9999844 8.50035938,15.9999844 Z" id="Shape"></path>
                <path d="M23.853375,23.1470156 L14.5103906,13.8039844 C14.3153906,13.6089844 13.998375,13.6089844 13.803375,13.8039844 C13.608375,13.9989844 13.608375,14.316 13.803375,14.511 L23.1463594,23.8539844 C23.244375,23.9509688 23.3723437,24 23.5003594,24 C23.628375,24 23.7563437,23.9510156 23.853375,23.8539844 C24.048375,23.6589844 24.048375,23.3420156 23.853375,23.1470156 Z" id="Shape"></path>
            </g>
        </g>
    </g>
</svg>