<svg xmlns="http://www.w3.org/2000/svg" width="86" height="27" viewBox="0 0 86 27">
    <path fill="#FFF" fill-rule="evenodd" d="M28.336.51v.72c-.867.036-1.491.13-1.872.282-.381.152-.65.433-.809.843-.158.41-.237 1.067-.237 1.97v17.859c0 .902.08 1.558.237 1.968.158.41.428.692.809.844.38.152 1.005.246 1.872.281v.721c-1.125-.07-2.648-.105-4.57-.105-2.063 0-3.598.035-4.606.105v-.72c.656-.024 1.154-.074 1.494-.15a1.73 1.73 0 0 0 .862-.466c.234-.234.383-.536.448-.905.064-.37.097-.894.097-1.573V2.918l-8.666 23.256h-.58L3.744 2.813v19.001c0 1.348.201 2.25.606 2.707.404.458 1.292.71 2.663.756v.721c-.856-.07-2.08-.105-3.674-.105-1.43 0-2.543.035-3.34.105v-.72c1.207-.048 1.995-.302 2.364-.765.37-.463.554-1.363.554-2.699V4.324c0-.902-.08-1.558-.237-1.969-.159-.41-.428-.69-.809-.843C1.492 1.359.867 1.266 0 1.23V.51c.785.07 1.898.105 3.34.105C4.605.615 5.63.58 6.416.51l7.91 20.883L22.061.615h1.705c1.922 0 3.445-.035 4.57-.105zM42.062 0c3.469 0 6.237 1.157 8.305 3.472 2.069 2.314 3.103 5.505 3.103 9.571 0 2.648-.486 4.995-1.459 7.04-.973 2.045-2.326 3.627-4.06 4.746-1.735 1.12-3.71 1.679-5.924 1.679-3.47 0-6.238-1.157-8.306-3.472-2.068-2.314-3.103-5.505-3.103-9.571 0-2.649.487-4.995 1.46-7.04.972-2.045 2.326-3.627 4.06-4.746C37.872.559 39.847 0 42.062 0zm-.14.65c-1.536 0-2.892.537-4.07 1.609-1.178 1.072-2.08 2.566-2.707 4.482-.627 1.916-.94 4.11-.94 6.583 0 3.75.758 6.777 2.276 9.08 1.517 2.302 3.413 3.453 5.686 3.453 1.535 0 2.889-.536 4.06-1.608 1.173-1.072 2.072-2.566 2.699-4.482.627-1.916.94-4.11.94-6.583 0-3.75-.758-6.777-2.276-9.08C46.073 1.802 44.183.65 41.921.65h.001zM65.578.51c4.242 0 7.42 1.06 9.536 3.181 2.115 2.122 3.173 5.215 3.173 9.282 0 3.972-1.149 7.136-3.446 9.492-2.297 2.355-5.49 3.533-9.58 3.533-.328 0-1.113-.018-2.355-.053-.896-.029-1.793-.046-2.69-.052-1.968 0-3.457.035-4.465.105v-.72c.868-.036 1.492-.13 1.873-.282.38-.152.65-.433.808-.844.158-.41.237-1.066.237-1.968V4.324c0-.902-.079-1.558-.237-1.969-.158-.41-.428-.69-.808-.843-.381-.153-1.005-.246-1.873-.282V.51c1.29.082 2.461.123 3.516.123A664.426 664.426 0 0 1 65.579.51h-.001zm-.897.65c-1.09 0-1.807.202-2.153.607-.346.404-.519 1.233-.519 2.487v18c0 1.266.173 2.098.519 2.496.346.398 1.075.598 2.188.598 1.301 0 2.455-.118 3.463-.352 1.008-.234 1.878-.595 2.61-1.081a7.41 7.41 0 0 0 1.855-1.74c.504-.674.905-1.48 1.204-2.417.299-.938.513-1.94.642-3.006a30.59 30.59 0 0 0 .193-3.639c0-2.062-.173-3.823-.518-5.282-.346-1.459-.909-2.695-1.688-3.709-.78-1.014-1.81-1.76-3.094-2.241-1.283-.48-2.85-.72-4.702-.72V1.16zM81.52 22.588a2.232 2.232 0 0 1 1.635-.686c.633 0 1.175.226 1.626.677.451.451.677.993.677 1.626 0 .621-.226 1.16-.677 1.617a2.203 2.203 0 0 1-1.626.686 2.203 2.203 0 0 1-1.626-.686c-.451-.457-.677-.996-.677-1.617 0-.633.223-1.172.668-1.617z"/>
</svg>
