<svg xmlns="http://www.w3.org/2000/svg" width="18" height="15" viewBox="0 0 18 15">
    <path fill="#FFF" fill-rule="evenodd" d="M18.08 2.41a7.554 7.554 0 0 1-1.808 1.865 10.24 10.24 0 0 1-.413 3.365 10.467 10.467 0 0 1-1.289 2.773 10.902 10.902 0 0 1-2.059 2.35c-.796.68-1.756 1.223-2.88 1.629A10.538 10.538 0 0 1 6.028 15C4.01 15 2.165 14.46.49 13.382c.26.03.55.044.87.044 1.675 0 3.167-.513 4.476-1.54a3.515 3.515 0 0 1-2.098-.72 3.526 3.526 0 0 1-1.272-1.78c.245.037.472.056.68.056.32 0 .636-.041.949-.123a3.547 3.547 0 0 1-2.07-1.244 3.483 3.483 0 0 1-.82-2.294v-.044c.505.282 1.048.435 1.629.457a3.6 3.6 0 0 1-1.172-1.283 3.512 3.512 0 0 1-.435-1.719c0-.655.163-1.261.49-1.82a10.219 10.219 0 0 0 3.288 2.663 10.045 10.045 0 0 0 4.146 1.11 4.004 4.004 0 0 1-.09-.826c0-.997.352-1.847 1.055-2.55a3.474 3.474 0 0 1 2.55-1.055c1.042 0 1.92.38 2.634 1.139a7.068 7.068 0 0 0 2.288-.87 3.5 3.5 0 0 1-1.585 1.986 7.183 7.183 0 0 0 2.076-.558z"/>
</svg>
